<?xml version="1.0" encoding="utf-8"?>
<!-- Generator: Adobe Illustrator 16.0.0, SVG Export Plug-In . SVG Version: 6.00 Build 0)  -->
<!DOCTYPE svg PUBLIC "-//W3C//DTD SVG 1.1//EN" "http://www.w3.org/Graphics/SVG/1.1/DTD/svg11.dtd">
<svg version="1.1" id="Calque_1" xmlns="http://www.w3.org/2000/svg" xmlns:xlink="http://www.w3.org/1999/xlink" x="0px" y="0px"
	 width="1063px" height="1067px" viewBox="0 0 1063 1067" enable-background="new 0 0 1063 1067" xml:space="preserve">
<rect fill="#603E65" width="1063" height="1067"/>
<g>
	<path fill="#1EB8B3" d="M432,352.058v-29.244c0-31.086-24.912-56.288-56-56.288s-56,25.202-56,56.288v38.16
		c14-3.613,29.516-6.434,45.837-8.222C389.687,350.139,412,350.05,432,352.058z"/>
	<path fill="#1EB8B3" d="M452.886,439.977c-0.051-0.078-0.097-0.156-0.147-0.234c-21.167,8.094-47.132,14.317-75.498,17.425
		c-33.908,3.715-65.416,2.329-90.094-2.945c-0.912,0.868-1.809,1.745-2.771,2.566C196.495,486.223,136,547.825,136,619.068
		c0,99.807,172.036,180.716,318.474,180.716S927,689.25,927,589.442C927,499.867,621.404,449.385,452.886,439.977z"/>
	<path fill="#19918F" d="M377.241,457.167c28.366-3.107,54.203-9.331,75.371-17.425C440.296,421.066,435,398.478,432,383.636
		v-31.578c-20-2.008-42.313-1.919-66.163,0.694C349.516,354.54,334,357.36,320,360.974v22.662
		c-4,19.002-11.773,50.685-32.692,70.586C311.985,459.496,343.333,460.882,377.241,457.167z"/>
	<g>
		<g>
			<circle fill="#45314E" cx="361.154" cy="730.014" r="32.588"/>
			<circle fill="#45314E" cx="361.154" cy="629.288" r="32.588"/>
		</g>
		<g>
			<circle fill="#45314E" cx="269.315" cy="685.576" r="32.588"/>
			<circle fill="#45314E" cx="458.918" cy="685.576" r="32.588"/>
		</g>
	</g>
	<g>
		<circle fill="#45314E" cx="530.019" cy="512.048" r="32.588"/>
		<circle fill="#45314E" cx="618.896" cy="541.674" r="32.589"/>
		<circle fill="#45314E" cx="707.771" cy="526.861" r="32.588"/>
	</g>
	<g>
		<polygon fill="#FFD102" points="356.39,399 375.971,365.089 395.551,399 		"/>
		<polygon fill="#FFD102" points="337.065,435 356.646,401.086 376.225,435 		"/>
		<polygon fill="#FFD102" points="414.878,435 395.299,401.086 375.718,435 		"/>
	</g>
</g>
</svg>
